<svg width="23" height="23" viewBox="0 0 23 23" fill="none" xmlns="http://www.w3.org/2000/svg">
<path d="M20.5846 9.19996H13.8V2.41535C13.8 1.17904 12.7748 0.153809 11.5385 0.153809C10.3022 0.153809 9.27693 1.17904 9.27693 2.41535V9.19996H2.49231C1.256 9.19996 0.230774 10.2252 0.230774 11.4615C0.230774 12.6978 1.256 13.723 2.49231 13.723H9.27693V20.5077C9.27693 21.744 10.3022 22.7692 11.5385 22.7692C12.7748 22.7692 13.8 21.744 13.8 20.5077V13.723H20.5846C21.8209 13.723 22.8462 12.6978 22.8462 11.4615C22.8462 10.2252 21.8209 9.19996 20.5846 9.19996Z" fill="white"/>
</svg>
