<svg width="216" height="74" viewBox="0 0 216 74" fill="none" xmlns="http://www.w3.org/2000/svg">
<path d="M43.6301 72.0858H32.3795C31.6489 72.0794 30.9304 71.8977 30.2838 71.556C29.6372 71.2143 29.0811 70.7224 28.6617 70.1211L15.8467 50.1869V69.434C15.8546 70.1234 15.5921 70.7882 15.1161 71.2845C14.64 71.7809 13.9886 72.0689 13.3028 72.0863H2.63917C2.29219 72.0877 1.94837 72.0201 1.62754 71.8874C1.3067 71.7546 1.01519 71.5592 0.76984 71.3127C0.524488 71.0661 0.330143 70.7731 0.198017 70.4507C0.0658915 70.1282 -0.00140023 69.7827 2.20848e-05 69.434V6.00048C-0.00140023 5.65177 0.0658915 5.30622 0.198017 4.98378C0.330143 4.66134 0.524488 4.36841 0.76984 4.12183C1.01519 3.87525 1.3067 3.67992 1.62754 3.54714C1.94837 3.41435 2.29219 3.34674 2.63917 3.34817H13.3023C13.9881 3.36555 14.6395 3.65358 15.1156 4.14995C15.5916 4.64632 15.8541 5.31111 15.8462 6.00048V42.8247L28.2702 24.2653C28.6694 23.6669 29.2077 23.1752 29.8384 22.8329C30.4692 22.4906 31.1734 22.3079 31.8902 22.3006H42.2601C42.7366 22.3029 43.2035 22.4356 43.6106 22.6845C44.0176 22.9334 44.3495 23.289 44.5706 23.7132C44.7917 24.1374 44.8936 24.6141 44.8654 25.0921C44.8372 25.5702 44.68 26.0314 44.4106 26.4264L30.8141 45.7688L45.782 67.962C46.0667 68.3534 46.2366 68.8172 46.2723 69.3007C46.3081 69.7842 46.2083 70.2681 45.9842 70.6975C45.7601 71.1269 45.4208 71.4846 45.0047 71.73C44.5886 71.9754 44.1124 72.0987 43.6301 72.0858Z" fill="white"/>
<path d="M106.913 47.2121C106.913 61.96 95.8586 73.3646 80.3033 73.3646C64.8462 73.3646 53.6934 61.96 53.6934 47.2121C53.6934 32.3659 64.8462 21.0591 80.3033 21.0591C95.8591 21.0591 106.913 32.3669 106.913 47.2121ZM90.9674 47.2121C90.9674 41.4113 86.7604 36.4952 80.3038 36.4952C73.9454 36.4952 69.7384 41.4113 69.7384 47.2121C69.7384 53.0128 73.9454 57.8307 80.3038 57.8307C86.7604 57.8307 90.9669 53.0128 90.9669 47.2121H90.9674Z" fill="white"/>
<path d="M136.846 22.2975H143.107C143.57 22.2953 144.029 22.3852 144.457 22.562C144.885 22.7389 145.274 22.9993 145.602 23.3281C145.929 23.6569 146.189 24.0476 146.365 24.4777C146.542 24.9078 146.632 25.3688 146.63 25.834V31.9245C146.631 32.3897 146.542 32.8507 146.365 33.2807C146.189 33.7108 145.929 34.1015 145.602 34.4303C145.274 34.7591 144.885 35.0195 144.457 35.1964C144.029 35.3732 143.57 35.4632 143.107 35.461H136.846V68.5552C136.848 69.0204 136.758 69.4813 136.582 69.9114C136.405 70.3415 136.146 70.7322 135.819 71.061C135.491 71.3898 135.102 71.6501 134.674 71.827C134.246 72.0039 133.787 72.0939 133.324 72.0917H124.423C123.504 72.0754 122.628 71.6945 121.987 71.0321C121.345 70.3697 120.991 69.4794 121 68.5552V35.457H118.36C117.898 35.4593 117.439 35.3693 117.011 35.1924C116.583 35.0155 116.194 34.7552 115.866 34.4264C115.539 34.0976 115.279 33.7069 115.103 33.2768C114.926 32.8467 114.836 32.3858 114.838 31.9206V25.8301C114.836 25.3649 114.926 24.9039 115.103 24.4738C115.279 24.0437 115.539 23.6529 115.866 23.3241C116.193 22.9953 116.583 22.735 117.011 22.5581C117.439 22.3812 117.898 22.2913 118.36 22.2936H121C121 13.063 124.033 0.787598 139.783 0.787598C141.324 0.795075 142.862 0.926468 144.382 1.18053C145.011 1.27615 145.586 1.59717 145.999 2.08451C146.412 2.57185 146.636 3.19272 146.63 3.83288V11.5959C146.629 11.9398 146.56 12.2801 146.426 12.5966C146.292 12.913 146.096 13.1989 145.849 13.4374C145.602 13.6758 145.31 13.8618 144.99 13.9842C144.671 14.1067 144.33 14.163 143.988 14.15H143.694C138.412 14.147 136.846 17.0936 136.846 22.2975Z" fill="white"/>
<path d="M177.033 22.2975H183.294C183.757 22.2953 184.215 22.3853 184.643 22.5622C185.072 22.7391 185.46 22.9995 185.788 23.3283C186.115 23.6571 186.375 24.0478 186.551 24.4778C186.727 24.9079 186.817 25.3689 186.815 25.834V31.9245C186.817 32.3897 186.727 32.8505 186.551 33.2806C186.374 33.7106 186.115 34.1013 185.788 34.4301C185.46 34.7589 185.071 35.0193 184.643 35.1962C184.215 35.3731 183.757 35.4631 183.294 35.461H177.033V68.5552C177.035 69.0204 176.945 69.4814 176.768 69.9115C176.592 70.3416 176.332 70.7324 176.005 71.0611C175.677 71.39 175.288 71.6503 174.86 71.8272C174.432 72.004 173.973 72.0939 173.51 72.0917H164.61C163.69 72.0754 162.814 71.6945 162.173 71.0321C161.532 70.3697 161.177 69.4794 161.186 68.5552V35.4571H158.546C158.084 35.4592 157.625 35.3692 157.197 35.1923C156.769 35.0154 156.38 34.755 156.052 34.4262C155.725 34.0974 155.466 33.7067 155.289 33.2767C155.113 32.8466 155.023 32.3858 155.025 31.9206V25.8301C155.023 25.3649 155.113 24.904 155.289 24.4739C155.466 24.0438 155.725 23.6531 156.052 23.3243C156.38 22.9955 156.769 22.7351 157.197 22.5582C157.625 22.3813 158.084 22.2914 158.546 22.2936H161.186C161.186 13.063 164.219 0.787598 179.969 0.787598C181.51 0.795066 183.048 0.926459 184.568 1.18053C185.197 1.27605 185.772 1.59706 186.185 2.08442C186.598 2.57178 186.822 3.19269 186.816 3.83288V11.5959C186.815 11.9398 186.746 12.2801 186.612 12.5964C186.478 12.9128 186.282 13.1988 186.035 13.4372C185.788 13.6756 185.497 13.8616 185.177 13.9841C184.857 14.1066 184.516 14.163 184.174 14.15H183.881C178.598 14.147 177.033 17.0936 177.033 22.2975Z" fill="white"/>
<path d="M198.33 8.35215C198.351 6.12589 199.248 3.99842 200.824 2.43406C202.4 0.869709 204.528 -0.00450639 206.744 0.00221042C207.85 -0.0233899 208.951 0.173603 209.981 0.581611C211.011 0.989619 211.95 1.6004 212.742 2.37809C213.534 3.15578 214.163 4.08471 214.592 5.11024C215.022 6.13577 215.243 7.23723 215.243 8.34993C215.243 9.46263 215.022 10.5641 214.592 11.5897C214.163 12.6152 213.534 13.5441 212.742 14.3218C211.95 15.0995 211.011 15.7103 209.981 16.1183C208.951 16.5263 207.85 16.7233 206.744 16.6977C204.529 16.7044 202.402 15.8308 200.826 14.2674C199.249 12.704 198.352 10.5776 198.33 8.35215ZM198.721 68.5508V25.8325C198.719 25.3673 198.809 24.9064 198.985 24.4763C199.162 24.0462 199.421 23.6554 199.748 23.3266C200.076 22.9978 200.465 22.7375 200.893 22.5606C201.321 22.3837 201.78 22.2938 202.242 22.2961H211.145C211.607 22.2938 212.066 22.3838 212.494 22.5607C212.922 22.7376 213.311 22.998 213.639 23.3268C213.966 23.6555 214.226 24.0462 214.402 24.4763C214.578 24.9064 214.668 25.3673 214.666 25.8325V68.5508C214.668 69.016 214.578 69.4769 214.402 69.907C214.226 70.3371 213.966 70.7278 213.639 71.0565C213.311 71.3853 212.922 71.6457 212.494 71.8226C212.066 71.9995 211.607 72.0895 211.145 72.0872H202.243C201.78 72.0895 201.322 71.9996 200.894 71.8227C200.466 71.6459 200.077 71.3855 199.749 71.0567C199.422 70.7279 199.162 70.3371 198.986 69.907C198.81 69.4769 198.72 69.016 198.722 68.5508H198.721Z" fill="white"/>
</svg>
