<svg width="183" height="65" viewBox="0 0 183 65" fill="none" xmlns="http://www.w3.org/2000/svg">
<path d="M97.3135 49.5697H91.6961C91.3313 49.5665 90.9726 49.4758 90.6497 49.3052C90.3269 49.1346 90.0492 48.889 89.8398 48.5888L83.4413 38.6356V48.2457C83.4452 48.5899 83.3142 48.9218 83.0765 49.1696C82.8388 49.4175 82.5135 49.5613 82.1711 49.57H76.8468C76.6735 49.5707 76.5019 49.5369 76.3417 49.4706C76.1815 49.4043 76.0359 49.3068 75.9134 49.1837C75.7909 49.0606 75.6939 48.9143 75.6279 48.7533C75.562 48.5923 75.5284 48.4198 75.5291 48.2457V16.5733C75.5284 16.3992 75.562 16.2267 75.6279 16.0657C75.6939 15.9047 75.7909 15.7584 75.9134 15.6353C76.0359 15.5122 76.1815 15.4147 76.3417 15.3484C76.5019 15.2821 76.6735 15.2483 76.8468 15.249H82.1709C82.5133 15.2577 82.8385 15.4015 83.0762 15.6494C83.3139 15.8972 83.445 16.2291 83.441 16.5733V34.9596L89.6444 25.6929C89.8437 25.3942 90.1124 25.1487 90.4274 24.9778C90.7423 24.8068 91.0939 24.7156 91.4518 24.712H96.6295C96.8674 24.7131 97.1005 24.7794 97.3038 24.9036C97.507 25.0279 97.6728 25.2055 97.7831 25.4173C97.8935 25.6291 97.9444 25.8671 97.9303 26.1058C97.9163 26.3445 97.8378 26.5748 97.7032 26.772L90.9145 36.4296L98.388 47.5107C98.5301 47.7061 98.615 47.9377 98.6328 48.1791C98.6507 48.4205 98.6008 48.6621 98.4889 48.8765C98.3771 49.0909 98.2076 49.2695 97.9999 49.3921C97.7921 49.5146 97.5543 49.5761 97.3135 49.5697Z" fill="#3A3A3A"/>
<path d="M128.911 37.15C128.911 44.5136 123.391 50.2079 115.624 50.2079C107.907 50.2079 102.338 44.5136 102.338 37.15C102.338 29.7373 107.907 24.0918 115.624 24.0918C123.391 24.0918 128.911 29.7378 128.911 37.15ZM120.949 37.15C120.949 34.2537 118.849 31.799 115.625 31.799C112.45 31.799 110.349 34.2537 110.349 37.15C110.349 40.0463 112.45 42.4519 115.625 42.4519C118.849 42.4519 120.949 40.0463 120.949 37.15H120.949Z" fill="#3A3A3A"/>
<path d="M143.856 24.7101H146.983C147.214 24.709 147.443 24.7539 147.656 24.8422C147.87 24.9305 148.064 25.0605 148.228 25.2247C148.392 25.3888 148.521 25.5839 148.609 25.7987C148.697 26.0134 148.742 26.2436 148.741 26.4759V29.5169C148.742 29.7491 148.697 29.9793 148.609 30.194C148.521 30.4088 148.391 30.6038 148.228 30.768C148.064 30.9322 147.87 31.0622 147.656 31.1505C147.443 31.2388 147.214 31.2837 146.983 31.2826H143.856V47.8066C143.857 48.0388 143.812 48.269 143.724 48.4837C143.636 48.6984 143.507 48.8935 143.343 49.0577C143.18 49.2218 142.986 49.3518 142.772 49.4402C142.558 49.5285 142.329 49.5734 142.098 49.5723H137.653C137.194 49.5642 136.757 49.374 136.437 49.0433C136.117 48.7125 135.94 48.268 135.944 47.8066V31.2807H134.626C134.395 31.2818 134.166 31.2369 133.952 31.1485C133.739 31.0602 133.544 30.9302 133.381 30.766C133.217 30.6019 133.088 30.4068 133 30.1921C132.912 29.9773 132.867 29.7472 132.868 29.5149V26.4739C132.867 26.2416 132.912 26.0115 133 25.7967C133.088 25.582 133.217 25.3869 133.381 25.2227C133.544 25.0585 133.739 24.9285 133.952 24.8402C134.166 24.7519 134.395 24.707 134.626 24.7082H135.944C135.944 20.0993 137.459 13.9702 145.323 13.9702C146.092 13.9739 146.86 14.0396 147.619 14.1664C147.933 14.2141 148.22 14.3744 148.426 14.6178C148.632 14.8611 148.744 15.1711 148.741 15.4907V19.3668C148.741 19.5385 148.706 19.7084 148.639 19.8664C148.572 20.0244 148.474 20.1672 148.351 20.2862C148.228 20.4053 148.082 20.4982 147.923 20.5593C147.763 20.6204 147.593 20.6486 147.422 20.642H147.276C144.638 20.6406 143.856 22.1118 143.856 24.7101Z" fill="#3A3A3A"/>
<path d="M163.921 24.7101H167.048C167.279 24.709 167.508 24.7539 167.721 24.8423C167.935 24.9306 168.129 25.0606 168.293 25.2248C168.456 25.3889 168.586 25.584 168.674 25.7987C168.762 26.0135 168.807 26.2436 168.806 26.4759V29.5169C168.807 29.7491 168.762 29.9792 168.674 30.194C168.586 30.4087 168.456 30.6037 168.293 30.7679C168.129 30.9321 167.935 31.0621 167.721 31.1504C167.508 31.2388 167.279 31.2837 167.048 31.2826H163.921V47.8066C163.922 48.0388 163.877 48.269 163.789 48.4838C163.701 48.6985 163.572 48.8936 163.408 49.0578C163.245 49.2219 163.05 49.3519 162.837 49.4402C162.623 49.5286 162.394 49.5734 162.163 49.5723H157.719C157.259 49.5642 156.822 49.374 156.502 49.0433C156.182 48.7125 156.004 48.268 156.009 47.8066V31.2807H154.691C154.46 31.2817 154.231 31.2368 154.017 31.1485C153.804 31.0601 153.609 30.9301 153.446 30.766C153.282 30.6018 153.153 30.4067 153.065 30.192C152.977 29.9773 152.932 29.7472 152.933 29.5149V26.4739C152.932 26.2417 152.977 26.0115 153.065 25.7968C153.153 25.582 153.282 25.387 153.446 25.2228C153.609 25.0586 153.804 24.9286 154.017 24.8403C154.231 24.752 154.46 24.7071 154.691 24.7082H156.009C156.009 20.0993 157.523 13.9702 165.387 13.9702C166.157 13.9739 166.925 14.0395 167.683 14.1664C167.998 14.2141 168.285 14.3744 168.491 14.6177C168.697 14.8611 168.809 15.1711 168.806 15.4907V19.3668C168.806 19.5385 168.771 19.7084 168.704 19.8664C168.637 20.0243 168.539 20.1671 168.416 20.2862C168.293 20.4052 168.147 20.4981 167.988 20.5592C167.828 20.6204 167.658 20.6485 167.487 20.642H167.341C164.703 20.6406 163.921 22.1118 163.921 24.7101Z" fill="#3A3A3A"/>
<path d="M174.555 17.7474C174.566 16.6358 175.013 15.5736 175.8 14.7925C176.587 14.0114 177.65 13.5749 178.756 13.5783C179.309 13.5655 179.858 13.6638 180.373 13.8675C180.887 14.0713 181.356 14.3762 181.751 14.7645C182.146 15.1528 182.46 15.6166 182.675 16.1287C182.889 16.6407 183 17.1907 183 17.7463C183 18.3018 182.889 18.8518 182.675 19.3639C182.46 19.8759 182.146 20.3397 181.751 20.728C181.356 21.1163 180.887 21.4213 180.373 21.625C179.858 21.8287 179.309 21.9271 178.756 21.9143C177.65 21.9176 176.588 21.4815 175.801 20.7009C175.014 19.9202 174.566 18.8586 174.555 17.7474ZM174.75 47.8045V26.4753C174.749 26.243 174.794 26.0129 174.882 25.7981C174.97 25.5834 175.1 25.3883 175.263 25.2241C175.427 25.06 175.621 24.93 175.835 24.8416C176.048 24.7533 176.277 24.7084 176.509 24.7096H180.953C181.185 24.7085 181.414 24.7534 181.627 24.8417C181.841 24.93 182.035 25.06 182.199 25.2242C182.362 25.3884 182.492 25.5834 182.58 25.7982C182.668 26.0129 182.713 26.243 182.712 26.4753V47.8045C182.713 48.0368 182.668 48.2669 182.58 48.4817C182.492 48.6964 182.362 48.8915 182.199 49.0556C182.035 49.2198 181.841 49.3498 181.627 49.4382C181.414 49.5265 181.185 49.5714 180.953 49.5703H176.509C176.278 49.5714 176.049 49.5265 175.835 49.4382C175.621 49.3499 175.427 49.2199 175.264 49.0557C175.1 48.8915 174.971 48.6964 174.883 48.4817C174.795 48.2669 174.75 48.0368 174.751 47.8045H174.75Z" fill="#3A3A3A"/>
<path d="M63.9454 5.52139V58.7427C63.9454 59.4678 63.8034 60.1858 63.5273 60.8557C63.2512 61.5256 62.8465 62.1343 62.3364 62.647C61.8262 63.1598 61.2205 63.5665 60.5539 63.8439C59.8873 64.1214 59.1729 64.2641 58.4514 64.2641H5.49394C4.77245 64.2641 4.05801 64.1214 3.39143 63.8439C2.72484 63.5665 2.11917 63.1598 1.609 62.647C1.09882 62.1343 0.694145 61.5256 0.418071 60.8557C0.141997 60.1858 -6.40526e-05 59.4678 4.87918e-08 58.7427V5.52139C-9.61109e-05 4.79628 0.141943 4.07826 0.418006 3.40833C0.694068 2.7384 1.09875 2.12969 1.60892 1.61696C2.1191 1.10424 2.72479 0.697536 3.39139 0.420094C4.05799 0.142653 4.77244 -9.6591e-05 5.49394 4.90355e-08H58.4514C59.1729 -9.6591e-05 59.8874 0.142653 60.554 0.420094C61.2206 0.697536 61.8262 1.10424 62.3364 1.61696C62.8466 2.12969 63.2513 2.7384 63.5273 3.40833C63.8034 4.07826 63.9455 4.79628 63.9454 5.52139Z" fill="#008060"/>
<path d="M54.5345 53.7348C54.5344 54.4056 54.337 55.0614 53.967 55.6198C53.5971 56.1781 53.0712 56.6141 52.4554 56.8729C51.8396 57.1317 51.1614 57.2017 50.5061 57.0742C49.8508 56.9467 49.2476 56.6274 48.7724 56.1564L48.7566 56.1407L48.4518 55.787L48.4386 55.7708L38.1125 43.9224L37.9417 43.7263C37.7145 43.4731 37.4637 43.2423 37.1928 43.0371H37.1901C36.694 42.6601 36.1366 42.3725 35.5427 42.1871C35.5427 42.1842 35.54 42.1842 35.5376 42.1871C35.0181 42.0231 34.4766 41.9404 33.9321 41.9419C33.2075 41.9413 32.4901 42.0867 31.8223 42.3696L19.1819 47.7009L17.4188 48.443L17.3742 48.4643L16.9486 48.6409L16.9327 48.6488C15.8157 49.0588 14.5954 49.0881 13.4601 48.7323C12.3248 48.3765 11.3375 47.6552 10.6504 46.6797C9.96326 45.7042 9.61452 44.5286 9.65791 43.3342C9.7013 42.1399 10.1344 40.993 10.8905 40.0704L10.9747 39.9755L11.1211 39.809L23.0157 26.5929L31.9497 16.666L39.3514 8.44054L39.449 8.33263C40.0435 7.70368 40.8545 7.32666 41.7164 7.27866C42.5782 7.23065 43.4257 7.51528 44.0857 8.07436C44.7457 8.63344 45.1683 9.42475 45.267 10.2865C45.3658 11.1483 45.1334 12.0154 44.6172 12.7107L36.48 23.9067L29.2898 33.7957L27.1695 36.714L27.1144 36.7903C27.0459 36.8984 27.0094 37.0239 27.0092 37.152C27.0096 37.3326 27.0812 37.5057 27.2082 37.6334C27.3353 37.7611 27.5074 37.8331 27.6871 37.8336C27.7967 37.8329 27.9046 37.8066 28.0024 37.7568L28.0653 37.7173L31.1632 35.9454L35.9924 33.1833L36.2579 33.03C37.4294 32.4044 38.7886 32.2325 40.0778 32.547C41.367 32.8614 42.4966 33.6404 43.2524 34.7362L43.502 35.1322L44.645 36.9593L53.8832 51.7283L53.8859 51.7334L54.1407 52.1427L54.1485 52.1562L54.1512 52.1589C54.4039 52.6454 54.5354 53.1861 54.5345 53.7348Z" fill="white"/>
</svg>
